<svg width="24" height="24" viewBox="0 0 24 24" fill="none" xmlns="http://www.w3.org/2000/svg">
<g clip-path="url(#clip0_735_4071)">
<path fill-rule="evenodd" clip-rule="evenodd" d="M11.75 2C6.36522 2 2 6.36522 2 11.75C2 17.1348 6.36522 21.5 11.75 21.5C17.1348 21.5 21.5 17.1348 21.5 11.75C21.5 6.36522 17.1348 2 11.75 2ZM3.5 11.75C3.5 7.19365 7.19365 3.5 11.75 3.5C16.3063 3.5 20 7.19365 20 11.75C20 16.3063 16.3063 20 11.75 20C10.8927 20 10.066 19.8692 9.28865 19.6266C9.71125 18.963 10.0473 18.248 10.2887 17.4991L10.8053 15.5219C11.0187 15.8265 11.3048 16.0729 11.6377 16.2388C11.9705 16.4047 12.3395 16.4848 12.7112 16.4719C15.2465 16.4719 17.0278 14.1681 17.0278 11.3063C17.0278 8.55719 14.7834 6.50282 11.9037 6.50282C8.31746 6.50282 6.41152 8.91344 6.41152 11.5319C6.41152 12.755 7.05871 14.2691 8.09777 14.7559C8.25214 14.8272 8.35308 14.7559 8.37683 14.6431C8.40057 14.5304 8.54292 13.961 8.60828 13.6995C8.61853 13.6581 8.6186 13.6143 8.60825 13.5729C8.5979 13.5315 8.57756 13.4933 8.54902 13.4616C8.15647 12.9085 7.94867 12.2457 7.95527 11.5675C7.95321 11.0807 8.04996 10.5986 8.23964 10.1503C8.42932 9.70195 8.708 9.29679 9.05881 8.9593C9.40962 8.62181 9.82527 8.35902 10.2806 8.18682C10.7359 8.01463 11.2214 7.93662 11.7078 7.95751C12.1633 7.93086 12.6194 7.99946 13.0469 8.15892C13.4745 8.31838 13.8641 8.5652 14.1909 8.88365C14.5177 9.20209 14.7746 9.58516 14.9451 10.0084C15.1156 10.4317 15.196 10.8858 15.1812 11.3419C15.1812 13.5863 14.0412 15.1478 12.5687 15.1478C12.3785 15.1624 12.1875 15.131 12.012 15.0562C11.8365 14.9813 11.6817 14.8653 11.5605 14.7179C11.4393 14.5706 11.3555 14.3962 11.316 14.2095C11.2765 14.0229 11.2826 13.8294 11.3337 13.6456C11.4181 13.2954 11.5295 12.9347 11.638 12.5832C11.8349 11.9455 12.0225 11.3381 12.0225 10.8788C12.043 10.7296 12.0311 10.5777 11.9875 10.4335C11.9439 10.2894 11.8696 10.1564 11.7698 10.0436C11.67 9.9308 11.547 9.84093 11.4092 9.78011C11.2714 9.7193 11.1221 9.68899 10.9715 9.69126C10.1403 9.69126 9.46933 10.5581 9.46933 11.71C9.46315 12.1171 9.53992 12.5211 9.69496 12.8975L8.71527 17.0538C8.59525 17.8391 8.59499 18.6382 8.71449 19.4236C8.06392 19.1661 7.45391 18.8282 6.89671 18.4222C5.91962 17.7084 5.10317 16.7848 4.51292 15.7093C4.28071 15.2862 4.08712 14.8462 3.93299 14.3946C3.65223 13.5644 3.5 12.675 3.5 11.75Z" fill="#121212"/>
</g>
<defs>
<clipPath id="clip0_735_4071">
<rect width="24" height="24" fill="white"/>
</clipPath>
</defs>
</svg>
