<svg width="24" height="24" viewBox="0 0 24 24" fill="none" xmlns="http://www.w3.org/2000/svg">
<g clip-path="url(#clip0_735_4073)">
<path fill-rule="evenodd" clip-rule="evenodd" d="M14.7715 3.08095C15.2799 2.99387 15.8492 2.96479 16.385 3.05543C17.3418 3.21732 18.2257 3.66205 18.9244 4.3288C19.3811 4.33913 19.8299 4.24916 20.227 4.1209C20.5631 4.01235 20.847 3.88128 21.046 3.77764C21.1449 3.72611 21.2213 3.68215 21.271 3.65239C21.2958 3.63753 21.3138 3.62629 21.3245 3.6195L21.3341 3.61344C21.6309 3.41571 22.0261 3.45419 22.279 3.7057C22.5319 3.95726 22.5726 4.35218 22.3764 4.65009C22.1687 4.96538 21.8803 5.52745 21.5573 6.15721C21.5065 6.25623 21.4548 6.35692 21.4025 6.45859C21.2172 6.81855 21.0272 7.18237 20.8501 7.4945C20.7389 7.69049 20.62 7.88946 20.5001 8.0614V8.33518C20.5077 9.34081 20.3924 10.3412 20.1583 11.3144C20.011 11.9268 19.8167 12.5283 19.5765 13.1137C18.9541 14.6304 18.0357 16.0078 16.8749 17.1656C15.7142 18.3233 14.3344 19.2382 12.8162 19.8567C11.2992 20.4747 9.6745 20.7845 8.03665 20.7681C5.66234 20.7701 3.33798 20.0861 1.34326 18.7982C1.04945 18.6085 0.925755 18.2409 1.04509 17.9121C1.16443 17.5834 1.49512 17.3808 1.84219 17.4238C2.14255 17.4609 2.44496 17.4791 2.74762 17.4781C3.83507 17.475 4.90181 17.2348 5.87567 16.7821C5.56612 16.6412 5.27058 16.4675 4.99443 16.2627C4.18271 15.6608 3.5788 14.8208 3.26673 13.8597C3.18564 13.6099 3.24108 13.3359 3.41289 13.1374C3.41597 13.1338 3.41908 13.1303 3.42221 13.1268C3.23869 12.9631 3.06696 12.785 2.90886 12.5933C2.19754 11.7311 1.80587 10.6497 1.80009 9.53195L1.80007 9.52807L1.80008 9.47807C1.80008 9.21221 1.94083 8.96621 2.17003 8.83149C2.22813 8.79734 2.28972 8.77164 2.35307 8.7544C2.01473 8.07931 1.83879 7.33387 1.84007 6.57761C1.83968 5.72084 2.06347 4.87888 2.48923 4.13537C2.61214 3.92074 2.83297 3.7805 3.0795 3.76052C3.32603 3.74055 3.56656 3.8434 3.72242 4.03545C4.68498 5.22146 5.88626 6.19172 7.24825 6.88319C7.94839 7.23864 8.68294 7.51634 9.43874 7.71277C9.86247 7.8229 10.2929 7.90749 10.7277 7.96591C10.7085 7.24266 10.8513 6.51979 11.1511 5.85186C11.5907 4.87203 12.3432 4.06585 13.2904 3.55976C13.6916 3.34543 14.2241 3.17472 14.7715 3.08095ZM3.49335 10.6284C3.623 10.9933 3.81586 11.3357 4.06592 11.6388C4.55724 12.2343 5.23919 12.6419 5.99641 12.7925C6.33369 12.8596 6.58213 13.1475 6.59916 13.4909C6.61618 13.8344 6.39743 14.1455 6.06843 14.2456C5.79594 14.3285 5.51676 14.3863 5.23441 14.4184C5.42099 14.6589 5.64047 14.8743 5.88787 15.0578C6.44906 15.4739 7.126 15.7048 7.82451 15.7182C8.14143 15.7243 8.4203 15.929 8.52112 16.2295C8.62195 16.53 8.52296 16.8615 8.27386 17.0575C7.22469 17.883 6.01149 18.4587 4.72594 18.7526C5.79142 19.0938 6.90887 19.2695 8.03916 19.2681L8.04786 19.2681C9.48792 19.283 10.9165 19.0109 12.2502 18.4676C13.5839 17.9242 14.796 17.1206 15.8156 16.1036C16.8353 15.0865 17.642 13.8765 18.1888 12.5442C18.3998 12.03 18.5705 11.5015 18.6999 10.9636C18.9057 10.1079 19.007 9.2282 19.0001 8.34394L19.0001 8.33807V7.80807C19.0001 7.62622 19.0661 7.45056 19.186 7.31379C19.2553 7.23475 19.3764 7.05219 19.5455 6.75429C19.7061 6.47116 19.8839 6.13126 20.0688 5.77208C20.08 5.75035 20.0912 5.72852 20.1025 5.70658C19.6229 5.81073 19.0793 5.86531 18.5095 5.80373C18.329 5.78423 18.1618 5.69994 18.0387 5.5665C17.5358 5.02116 16.8662 4.65816 16.1348 4.53442C15.8102 4.47951 15.4179 4.49208 15.0248 4.55942C14.5977 4.63258 14.226 4.76059 13.9973 4.88277C13.343 5.23234 12.8233 5.78918 12.5196 6.46597C12.2159 7.14275 12.1454 7.9012 12.3192 8.62236C12.3746 8.85227 12.3183 9.09485 12.1674 9.27688C12.0164 9.45891 11.7884 9.55906 11.5522 9.54712C10.7088 9.50446 9.87429 9.37581 9.06142 9.16454C8.20152 8.94105 7.36579 8.6251 6.56921 8.22069C5.39643 7.62527 4.32838 6.84818 3.40354 5.92049C3.36135 6.1361 3.33993 6.35613 3.34008 6.57758L3.34007 6.5795C3.33903 7.13022 3.47418 7.67265 3.73349 8.1585C3.9928 8.64435 4.36822 9.05854 4.82633 9.36419C5.10436 9.54969 5.22608 9.89677 5.12483 10.2153C5.02358 10.5338 4.72378 10.7469 4.38968 10.7378C4.08708 10.7296 3.78702 10.6928 3.49335 10.6284Z" fill="#121212"/>
</g>
<defs>
<clipPath id="clip0_735_4073">
<rect width="24" height="24" fill="white"/>
</clipPath>
</defs>
</svg>
