<svg width="24" height="24" viewBox="0 0 24 24" fill="none" xmlns="http://www.w3.org/2000/svg">
<g clip-path="url(#clip0_735_4072)">
<path fill-rule="evenodd" clip-rule="evenodd" d="M10.2377 3.53769C11.2223 2.55312 12.5576 2 13.95 2H16.65C17.0642 2 17.4 2.33579 17.4 2.75V6.35C17.4 6.76421 17.0642 7.1 16.65 7.1H13.95C13.9102 7.1 13.8721 7.1158 13.8439 7.14393C13.8158 7.17206 13.8 7.21022 13.8 7.25V9.2H16.65C16.881 9.2 17.099 9.3064 17.2412 9.48844C17.3833 9.67048 17.4336 9.90785 17.3776 10.1319L16.4776 13.7319C16.3941 14.0658 16.0942 14.3 15.75 14.3H13.8V20.75C13.8 21.1642 13.4642 21.5 13.05 21.5H9.45C9.03579 21.5 8.7 21.1642 8.7 20.75V14.3H6.75C6.33579 14.3 6 13.9642 6 13.55V9.95C6 9.53579 6.33579 9.2 6.75 9.2H8.7V7.25C8.7 5.85761 9.25312 4.52226 10.2377 3.53769ZM13.95 3.5C12.9554 3.5 12.0016 3.89509 11.2983 4.59835C10.5951 5.30161 10.2 6.25544 10.2 7.25V9.95C10.2 10.3642 9.86421 10.7 9.45 10.7H7.5V12.8H9.45C9.86421 12.8 10.2 13.1358 10.2 13.55V20H12.3V13.55C12.3 13.1358 12.6358 12.8 13.05 12.8H15.1644L15.6894 10.7H13.05C12.6358 10.7 12.3 10.3642 12.3 9.95V7.25C12.3 6.81239 12.4738 6.39271 12.7833 6.08327C13.0927 5.77384 13.5124 5.6 13.95 5.6H15.9V3.5H13.95Z" fill="#121212"/>
</g>
<defs>
<clipPath id="clip0_735_4072">
<rect width="24" height="24" fill="white"/>
</clipPath>
</defs>
</svg>
